<?xml version="1.0" encoding="utf-8"?>
<!-- Generator: Adobe Illustrator 25.4.1, SVG Export Plug-In . SVG Version: 6.00 Build 0)  -->
<svg version="1.1" id="Layer_1" xmlns="http://www.w3.org/2000/svg" xmlns:xlink="http://www.w3.org/1999/xlink" x="0px" y="0px"
	 viewBox="0 0 1574.1 2227.4" enable-background="new 0 0 1574.1 2227.4" xml:space="preserve">
<g>
	<defs>
		<rect id="SVGID_1_" width="1574.1" height="2227.4"/>
	</defs>
	<clipPath id="SVGID_00000042711470625865321340000011947209754581710015_">
		<use xlink:href="#SVGID_1_"  overflow="visible"/>
	</clipPath>
	
		<rect clip-path="url(#SVGID_00000042711470625865321340000011947209754581710015_)" fill="#FFF4D2" width="1574.1" height="2227.4"/>
	<g clip-path="url(#SVGID_00000042711470625865321340000011947209754581710015_)">
		<path fill="#FFE277" d="M1147.8,380.5c-6-1.2-12.1-2.3-18.1-3.3c-27.8-4.4-55.9-7.7-84.4-10c-28.5-2.3-57.2-3.8-86.5-4.9
			c-58.6-2.2-119.1-2.7-183.1-5.4c-89.6-5.3-192-2.5-281.5-2.4c106.1,2.4,215,3,322.8,5.4c53.8,1.2,107.2,3,159.3,6.9
			c26.1,1.9,51.9,4.3,77.3,7.4c12.7,1.5,25.3,3.3,37.8,5.1c12.5,1.9,24.9,3.9,37.1,6.2c-20.5,4.6-44.6,8-72.5,6.5
			c-67-6-134.1-8.6-201.3-9.9c0-2.7,0-8,0-10.7c-47.7,2-95,2.3-141.8,1.6c-46.8-0.6-93.2-2.1-139.6-3.4
			c-92.8-2.6-185.6-4.5-281.5,2.4c6.8,1.4,2.8,3.6,1.4,5.4c-0.5,0-0.9,0-1.4,0c0.4,0,0.9,0,1.4,0c-1.3,1.5-0.5,2.7,11.5,2.7
			c-11.9,0-12.7-1.2-11.5-2.7c94.4-1.4,185.8-1.6,277.1-0.7c45.7,0.4,91.3,1.1,137.3,2c23,0.5,46.1,1,69.4,1.5
			c23.3,0.5,46.6,1.1,70.1,1.8c-36.4-0.7-72.9-1-109.2-1.4c-36.3-0.3-72.6-0.5-108.7-0.5c-72.3-0.1-144.5,0.1-216.8,0.6
			c-144.7,0.9-290.3,2.4-440.4,2.5c-12.8,0-38.4,0-51.2,0.1c-51.2-8-102.4-10.7-153.6-10.6c12.8-13.5-38.5-40.5,63.9-35.2
			c0-2.7,0-8.1,0-10.8c-102.4-13.4-140.9-51.1-38.5-62.1c115.1-10.9,268.7-0.3,409.5-5.9c102.4-2.8,204.8-5.7,307.1-0.4
			c70.4,4,144,5.2,217.6,6.8c36.8,0.8,73.5,1.7,110.1,3.1c36.5,1.4,72.8,3.4,108.3,6.7c25.9,1.8,61.5,1.3,94.1,2.1
			c32.6,0.8,62,2.7,74.7,7.8c4.6,1.3,8.1,2.7,10.6,4c2.6,1.4,4.2,2.8,5.2,4.3c1.9,2.9,1.1,5.9-0.5,9c-85-8-169.7-10-253-11.5
			c-51.1-1.7-101.9-3.1-152.8-5c-50.9-1.8-101.7-3.9-152.6-6.6c49.7,3.6,100.1,6.1,151.1,7.9c50.9,1.8,102.3,2.7,154.3,3.6
			c83,2.8,166.6,6.7,249.9,16.4c-3.5,5.2-6.9,10.7-2.2,16.5c0,0,6.4,0.6,14.4,1.2c8,0.6,17.6,1.7,24,2.3c3.1,1.2,6,2.3,8.6,3.5
			c2.6,1.2,5,2.4,7.1,3.5c4.3,2.3,7.6,4.6,10.2,6.9c5.1,4.5,7,8.8,6.5,12.8c-1,8-11.4,15-24.5,20.3
			C1163.4,375.8,1156,378.3,1147.8,380.5z"/>
	</g>
	<g clip-path="url(#SVGID_00000042711470625865321340000011947209754581710015_)">
		<path fill="#FFE277" d="M1929.3,818.9c-4.5-1-9.1-1.9-13.9-2.6c-11.1-1.5-22.9-2.4-35.4-3.2c-12.5-0.8-24.9-1.4-37.5-1.9
			c-25-1.1-50.3-1.7-75.8-2.3c-51.1-1.1-103.7-1.8-158.9-4.4c-77.4-5.2-165.9-2.1-243.3-1.4c91.7,1.7,185.8,2,279,4.4
			c46.6,1.2,92.9,2.9,138.6,5.5c22.9,1.3,45.5,2.9,68,4.7c11.2,0.9,22.4,1.9,33.6,3c5.5,0.5,10.9,1.1,16.1,1.7
			c5.2,0.6,10.2,1.3,15,2.1c-7.9,2.8-16.9,5.6-27.3,7.6c-5.2,1-10.8,1.8-16.6,2.4c-5.8,0.6-11.7,0.8-17.9,0.8
			c-14.9-0.7-29.7-1.3-44.6-1.9c-14.8-0.5-29.6-1.1-44.3-1.6c-29.4-1-58.7-1.7-87.9-2.3c0-2.7,0-8,0-10.7c-82.9,4.1-163,1-243.2-1.2
			c-80.2-2.2-160.3-3.4-243.2,4.4c5.9,1.4,2.4,3.6,1.2,5.4c-0.4,0-0.8,0-1.2,0c0.4,0,0.8,0,1.2,0c-1.1,1.5-0.4,2.7,9.9,2.6
			c-10.3,0.1-11-1-9.9-2.6c163-4.7,315.6-3.1,478.4,2c-126.4-2.5-250.6-1.7-375.5,0.2c-124.9,2-250.7,5.1-380.2,7.8
			c-11,0.2-33.1,0.7-44.2,0.9c-44.4-7.1-88.7-8.9-132.8-7.8c10.7-13.8-34.2-39.7,54.4-36.4c-0.1-2.7-0.2-8.1-0.3-10.8
			c-88.8-11.4-123.1-48.3-34.7-61.3c49.7-6.6,107.9-7.9,168.9-8.4c61-0.5,124.7-0.3,185.6-3.9c88.7-4,177.3-7.7,266-3.1
			c122,7.1,255,4,376.9,15c22.2,1.4,52.7,0.1,80.4-0.5c13.9-0.3,27-0.4,38.1,0.1c5.6,0.2,10.5,0.6,14.9,1.2c4.4,0.6,8.1,1.4,11,2.4
			c8.3,2,12.7,4.6,14.6,7.4c1.9,2.8,1.3,5.8-0.1,9c-9.6-0.4-18.9-0.6-28.1-0.8c-9.1-0.1-18.2-0.3-27.3-0.4
			c-18.2-0.2-36.3-0.5-54.4-0.7c-36.2-0.4-72.3-0.9-108.2-1.5c-88.1-3-176.2-6.1-264.2-10.9c86.2,6.8,174.6,9.4,264.2,10.9
			c35.8,1.3,71.6,2.5,107.5,3.8l53.7,2.1l26.9,1.1c8.9,0.4,18.1,0.8,27.4,1.4c-2.9,5.4-5.5,11.1-1.3,16.6c0,0,5.6,0.1,12.6,0.5
			c7,0.4,15.5,1.1,21.1,1.8c10.9,4.7,17.7,10,21.3,14.9c3.7,4.9,4.4,9.3,3.3,13.2c-1.1,3.9-4,7.3-7.7,10.4c-1.9,1.6-4,3-6.2,4.4
			c-2.3,1.4-4.6,2.7-7.2,4C1940.9,814,1935.4,816.3,1929.3,818.9z"/>
	</g>
	<g clip-path="url(#SVGID_00000042711470625865321340000011947209754581710015_)">
		<path fill="#FFE277" d="M1547.7,599c-3.3-0.7-6.6-1.4-9.9-2.1c-15.2-2.7-30.4-4.4-45.8-5.9c-15.4-1.5-30.8-2.4-46.6-3.2
			c-7.9-0.4-15.8-0.9-23.7-1.2c-8-0.4-16-0.7-24.1-1.1c-8.1-0.4-16.3-0.9-24.6-1.4c-8.3-0.5-16.7-1-25.2-1.7
			c-47.6-5.4-102.1-2.1-149.7-0.6c56.5,0.8,114.4,0.9,171.7,3.7c57.3,2.8,113.9,8.3,167.5,19.7c-5.6,3-11.7,5.6-18.2,7.4
			c-6.6,1.9-13.7,2.9-21.2,2.7c-9.1-0.9-18.2-1.8-27.2-2.5c-9.1-0.7-18.1-1.4-27.1-2c-18-1.4-35.9-2.2-53.8-3c0-2.7,0.1-8,0.1-10.7
			c-12.7,0.8-25.3,1.4-37.9,1.6c-12.5,0.2-25,0-37.4-0.2c-12.4-0.2-24.8-0.7-37.1-1.2c-12.3-0.5-24.6-0.9-37-1.4
			c-49.2-1.6-98.6-2-149.1,7.3c3.7,1.3,1.7,3.6,1,5.3c-0.2,0-0.5,0-0.7,0c0.2,0,0.5,0,0.7,0c-0.6,1.6-0.1,2.7,6.2,2.4
			c-6.3,0.3-6.8-0.9-6.2-2.4c49.9-3.8,98.3-5.4,146.6-5.5c12.1,0,24.2,0.1,36.3,0.3c12.1,0.2,24.3,0.6,36.4,0.9
			c6.1,0.2,12.2,0.4,18.3,0.6c6.1,0.3,12.3,0.6,18.4,0.8c6.1,0.3,12.3,0.6,18.5,0.9c6.2,0.3,12.4,0.6,18.6,1.1
			c-9.7-0.5-19.3-0.7-29-1c-9.6-0.2-19.3-0.5-28.9-0.6c-9.6-0.1-19.2-0.1-28.8-0.2c-9.6,0-19.2-0.1-28.7,0.1
			c-19.1,0.2-38.3,0.5-57.4,1.1c-9.6,0.3-19.1,0.6-28.7,0.9c-9.6,0.4-19.1,0.8-28.7,1.3c-38.3,1.7-76.6,4.2-115.3,6.8
			c-9.7,0.7-19.3,1.4-29.1,2.2c-9.7,0.7-19.4,1.4-29.2,2.2c-19.5,1.6-39.2,3.1-58.9,4.8c-6.7,0.6-20.2,1.7-27,2.3
			c-13.8-2.8-27.6-4.2-41.3-4.6c-3.4-0.1-6.8-0.2-10.2-0.1c-3.4,0.1-6.8,0.2-10.2,0.3c-6.8,0.3-13.5,0.9-20.3,1.6
			c5.4-14.1-24.6-38.2,30.3-38.4c-0.3-2.7-0.8-8.1-1.1-10.7c-27.9-3.9-48-14.7-54.5-26.6c-6.5-11.9,0.7-24.9,27.8-33.1
			c7.6-2.1,15.6-4,23.9-5.5c8.3-1.5,16.9-2.8,25.7-4c17.6-2.3,36.2-3.6,55.3-4.9c9.5-0.7,19.1-1.2,28.8-1.7
			c9.7-0.5,19.4-1.1,29.1-1.8c9.7-0.6,19.5-1.3,29.1-2.2c9.7-0.8,19.3-2,28.7-3.2c55.2-6,110.7-11,166.3-7.2
			c9.6,0.8,19.2,1.3,29,1.8c9.7,0.6,19.5,1,29.4,1.3c19.7,0.7,39.6,1.3,59.6,2l7.5,0.3l7.5,0.3c5,0.2,9.9,0.5,14.9,0.7
			c9.9,0.5,19.8,1.1,29.7,1.9c9.8,0.8,19.6,1.7,29.3,2.8c9.7,1.1,19.3,2.3,28.8,3.9c6.9,0.8,15.1,1,23.8,0.9c4.3,0,8.8-0.1,13.2-0.2
			c4.4-0.1,8.9-0.1,13.2-0.2c17.3-0.1,32.9,0.3,39.6,4.6c9.8,4.3,9.9,10,8.2,16.4c-11.3-0.7-22.6-1.2-33.9-1.8
			c-5.6-0.3-11.3-0.5-16.9-0.8c-5.6-0.3-11.3-0.5-16.9-0.7c-22.5-0.8-45-1.6-67.3-2.5l-20.5-1.4l-20.6-1.3l-20.6-1.3l-10.3-0.7
			l-10.3-0.6c-13.7-0.8-27.4-1.8-41.2-2.7c-13.7-0.9-27.5-1.9-41.2-3c13.5,1.6,27,3,40.6,4.1c13.6,1.2,27.3,2.2,41,3
			c6.9,0.4,13.7,0.8,20.6,1.2c6.9,0.4,13.8,0.7,20.7,1c13.8,0.6,27.7,1.1,41.7,1.7l16.7,1.1l8.3,0.5l8.3,0.6l33.4,2.5
			c5.6,0.4,11.1,0.9,16.7,1.4l16.7,1.5c11.1,1,22.2,2,33.3,3.2c-1.8,5.4-3.6,11.1-1.1,16.6c0,0,13.7,0.5,20.6,0.8
			c26.9,14.6,19,33.2,4.9,46.1C1556.2,593.2,1552.1,596.1,1547.7,599z"/>
	</g>
	<g clip-path="url(#SVGID_00000042711470625865321340000011947209754581710015_)">
		<path fill="#FFE277" d="M1736.3,140.6c-2.5-0.4-4.9-0.9-7.3-1.3c-11.2-1.5-22.4-2-33.7-2.3c-11.3-0.3-22.6,0-34,0.3
			c-5.7,0.2-11.5,0.3-17.3,0.6c-5.8,0.2-11.7,0.5-17.6,0.7c-5.9,0.2-11.9,0.3-18,0.4c-6.1,0.1-12.2,0.1-18.4,0.1
			c-35.1-2.1-74.3,4.9-108.8,9.4c41.1-2.7,83.2-6.6,125-7.8c41.8-1.3,83.4-0.1,123.1,7c-3.8,3.4-8,6.5-12.6,8.8
			c-4.6,2.4-9.6,4-15.1,4.3c-6.7-0.2-13.3-0.4-19.9-0.4c-6.6,0-13.2-0.1-19.8,0c-13.2,0-26.2,0.4-39.2,0.9c-0.2-2.7-0.7-8-0.9-10.7
			c-9.1,1.7-18.2,3.2-27.3,4.3c-9.1,1.1-18.1,1.8-27.1,2.4c-9,0.6-18,1-27,1.3c-9,0.3-18,0.7-26.9,1c-35.9,1.6-71.8,4.2-107.5,16.4
			c2.8,1,1.6,3.4,1.3,5.3c-0.2,0-0.4,0.1-0.5,0.1c0.2,0,0.3-0.1,0.5-0.1c-0.3,1.6,0.2,2.7,4.8,2.1c-4.6,0.7-5-0.5-4.8-2.1
			c35.8-6.7,70.7-11.2,105.8-14.5c35.1-3.2,70.3-4.8,106.7-5.4c-7,0.2-14.1,0.7-21.1,1.1c-7,0.4-14,0.9-21,1.4
			c-7,0.6-13.9,1.2-20.9,1.8c-6.9,0.6-13.9,1.2-20.8,2c-13.8,1.5-27.7,3-41.5,4.8c-6.9,0.9-13.8,1.8-20.7,2.7c-6.9,1-13.8,2-20.7,3
			c-27.6,4-55.1,8.7-82.9,13.5c-6.9,1.2-13.9,2.5-20.9,3.7c-7,1.3-14,2.4-21,3.8c-14,2.6-28.1,5.1-42.3,7.8
			c-4.8,0.9-14.5,2.7-19.4,3.6c-10.4-2.1-20.6-2.8-30.6-2.6c-5,0.1-10,0.5-14.9,1.2c-4.9,0.6-9.8,1.5-14.6,2.5
			c2.1-14.2-22.9-36.6,17.3-39.4c-0.5-2.6-1.6-7.9-2.1-10.6c-20.9-2.6-37.1-12.3-43.4-23.8c-6.3-11.4-2.7-24.6,16.2-34
			c10.7-5,22.6-8.7,35.3-11.8c12.7-3.2,26.2-5.4,40-7.7c6.9-1.1,13.9-2.2,21-3.2c7.1-1.1,14.1-2.2,21.2-3.3
			c7.1-1.2,14.1-2.4,21.1-3.8c7-1.4,13.9-3,20.7-4.7c39.8-9.1,80-17.5,121.1-17.2c7.1,0.1,14.2,0.1,21.4,0
			c7.2-0.1,14.4-0.3,21.7-0.6c14.5-0.7,29.1-1.3,43.8-2c7.3-0.4,14.6-0.5,21.9-0.7c7.3-0.2,14.6-0.3,21.9-0.2
			c7.3,0.1,14.5,0.3,21.7,0.7c7.2,0.4,14.3,0.9,21.4,1.8c5.1,0.3,11.1-0.1,17.4-0.9c3.2-0.4,6.4-0.8,9.6-1.2
			c3.2-0.4,6.5-0.8,9.6-1.2c12.6-1.5,24-2.2,29.3,1.5c7.5,3.5,8.1,9.2,7.4,15.7c-8.3,0.2-16.6,0.6-24.9,0.9
			c-8.3,0.4-16.6,0.7-24.8,1.1c-16.5,0.9-33,1.7-49.3,2.5c-40.3,0.4-80.6,1-121.3,0.4c40,2.7,80.4,1.6,121.3-0.4
			c8.2,0,16.4-0.2,24.6-0.2l24.6,0c8.2,0,16.4,0.2,24.6,0.3c8.2,0.1,16.4,0.2,24.5,0.6c-0.9,5.6-1.7,11.4,0.6,16.6
			c0,0,10-0.5,15-0.8c20.8,12.4,16.5,31.6,7.4,45.6C1741.9,134.1,1739.3,137.3,1736.3,140.6z"/>
	</g>
	<g clip-path="url(#SVGID_00000042711470625865321340000011947209754581710015_)">
		<path fill="#FFE277" d="M-355.9,57.9c3.3,0.4,6.5,0.8,9.8,1.3c59.9,5.6,119.4,1,185.8,4.8c46.5,4.3,99.3,0.7,145.7,0.3
			c-54.9-2-111.3-1.8-167.1-2.8c-55.9-1-111.2-3.4-164.4-10.5c10.4-6.8,23-12.4,37.9-13c9,0.3,17.9,0.5,26.8,0.8
			c8.9,0.2,17.8,0.4,26.7,0.6c17.7,0.3,35.3,0.6,52.9,0.7c0.1,2.7,0.2,8,0.3,10.7c49.6-5.4,97.8-3.1,145.9-1
			c48.1,2.1,96.1,3.7,145.9-3c-3.5-1.4-1.4-3.6-0.7-5.4c0.2,0,0.5,0,0.7,0c-0.2,0-0.5,0-0.7,0c0.7-1.5,0.3-2.7-5.9-2.7
			c6.2,0,6.6,1.2,5.9,2.7c-49,1.3-96.3,1.7-143.7,1.3c-47.4-0.3-94.7-1.3-143.7-2.6c76,0.4,150.5-0.8,225.6-1.9
			c37.5-0.6,75.2-1.1,113.2-1.3c38-0.2,76.3-0.2,115.3,0.5c6.6,0.1,19.9,0.3,26.5,0.4c26.4,8.6,52.9,11.9,79.4,12.6
			c-6.9,13.3,18.8,41-33.9,34.3c-0.1,2.7-0.2,8.1-0.2,10.8c52.6,14.8,71.1,53.1,18.3,62.6c-14.8,2.3-30.8,3.3-47.7,3.6
			c-16.8,0.2-34.4-0.2-52.5-0.8c-18-0.6-36.5-1.3-54.9-1.6c-18.5-0.2-36.9,0-54.9,1.2c-52.5,2.5-104.9,5.4-157.4,0.5
			c-72.3-7.3-151-3-223.5-11.4c-13.2-0.9-31.2,1-47.6,2.3c-16.4,1.3-31.2,1.8-37.9-1.9c-9.6-3.5-10.2-9.2-9-15.7
			c43.3-0.8,86.4-2,129.1-2.1c52.4,1.5,104.8,3.7,157.1,8.4c-51.2-6.7-103.8-8.5-157.1-8.4c-42.6-1.3-85.3-2-127.9-3.2
			c1.3-5.6,2.6-11.4-0.2-16.6c0,0-13.2,0.6-19.8,0.8c-27-12.4-21.2-31.5-8.6-45.6C-363.7,64.4-360,61.2-355.9,57.9z"/>
	</g>
	<g clip-path="url(#SVGID_00000042711470625865321340000011947209754581710015_)">
		<path fill="#FFE277" d="M-502.4,674.3c3.3-0.1,6.6-0.3,9.9-0.4c30.1-2.3,59.6-7.6,89.8-13.8c30.2-6.2,61-13.4,93.8-19.6
			c23.2-3.5,47.5-9.7,71.5-16.8c24-7.1,47.6-15.2,69.9-22.3c-53.5,14.5-108.1,29.8-163,41.7c-54.8,12-109.9,20.7-163.5,22.6
			c9.1-8.4,20.5-16.1,34.9-19.3c35.3-5.4,69.9-11.9,104.1-19.5c0.7,2.6,2,7.8,2.7,10.4c47.1-16.5,94.2-26.2,141.1-37.8
			c46.7-11.4,93.4-25.3,141-46.7c-3.9-0.3-2.5-3-2.3-4.9c0.2-0.1,0.5-0.2,0.7-0.2c-0.2,0.1-0.5,0.1-0.7,0.2c0.2-1.7-0.5-2.7-6.7-0.8
			c6.2-1.9,6.9-0.9,6.7,0.8c-48.5,16.1-93.9,31.6-139.2,44.4c-22.7,6.5-45.6,12.5-68.8,18.1c-23.2,5.6-46.6,10.8-70.5,15.7
			c36.9-8.3,73.3-17.8,109.2-28.3c9-2.6,17.9-5.3,26.9-8c8.9-2.7,17.8-5.5,26.7-8.4c17.8-5.7,35.8-11.7,53.9-17.7
			c36.4-12.1,73.6-24.4,112.6-35.2c19.5-5.4,39.5-10.4,60-14.6c20.5-4.3,41.6-7.9,63.2-10.3c1.8-0.2,4.2-0.4,6.7-0.7
			c2.5-0.3,5.3-0.6,8.1-0.8c5.6-0.5,11.2-1,15-1.1c15.3,3,30.3,5.4,45.3,7.4c15,2,29.9,3.5,45,5.3c-2.3,3.2-2.2,7.4-1.9,11.8
			c0.3,4.4,0.9,9,0,12.8c-0.9,3.8-3.3,6.9-8.8,8.3c-5.5,1.5-14.2,1.4-28.1-0.5c-0.1,2.7-0.3,8.1-0.4,10.8c6.7,2,12.9,4.3,18.2,7.2
			c2.7,1.4,5.2,2.8,7.5,4.4c2.3,1.6,4.5,3.2,6.4,4.8c3.9,3.2,7,6.7,9.3,10.1c2.3,3.4,3.8,6.8,4.5,10c0.8,3.3,0.7,6.4-0.2,9.3
			c-0.5,1.4-1.2,2.8-2.1,4.1c-0.9,1.3-1.9,2.6-3.2,3.7c-2.5,2.3-5.8,4.3-10,5.8c-2.1,0.8-4.4,1.6-6.9,2.2c-1.2,0.3-2.6,0.6-3.9,0.8
			c-1.4,0.3-2.8,0.5-4.3,0.8c-13.3,1.6-27.4,2.6-42.4,3.6c-15,1-31,2.1-47.5,3.9c-16.5,1.8-33.7,4.2-50.9,7.7
			c-17.2,3.5-34.4,8.1-51,14c-48.7,15.9-98,35.4-151.7,46.9c-37.2,7.6-75.3,17.6-113.7,26.7c-38.4,9-77,17-114.8,20.7
			c-6.8,0.9-14.7,2.9-22.9,5.1c-8.3,2.2-16.9,4.8-25.1,7c-16.5,4.5-31.6,7.7-39.1,5.2c-10.4-1.7-12-7.3-11.9-13.9
			c21.9-4.2,43.8-8.7,65.5-13.5c21.7-4.7,43.3-9.6,64.8-14.5c53.1-10.4,106.2-21.8,159.6-32.7c-52.8,8.5-105.8,20.5-159.6,32.7
			c-21.6,4.3-43.2,8.3-64.9,12.2c-21.7,3.8-43.4,7.4-65.1,10.6c0.4-5.7,0.7-11.7-3-16.3c0,0-13.2,2.8-19.8,4.2
			c-29.2-7.8-26.1-27.7-15.9-43.6C-509,681.9-505.9,678.1-502.4,674.3z"/>
	</g>
	<g clip-path="url(#SVGID_00000042711470625865321340000011947209754581710015_)">
		<path fill="#FFE277" d="M-525,943.8c3.1-1.1,6.1-2.3,9.1-3.4c13.5-5.4,27-10.8,40.6-16.2c13.4-5.2,26.8-10.4,40.3-15.3
			c27-9.8,54.7-18.6,84-25.3c20.8-3.9,42-9.9,63.2-16.7c21.1-6.8,42-14.2,61.8-20.5c-23.7,6.3-47.7,13.1-71.7,19.9
			c-24.2,6.8-48.5,13.7-72.7,20.5c-24.5,6.9-49.3,14-74.2,21.6c-3.1,0.9-6.2,1.9-9.3,2.9c-3.1,1-6.3,1.9-9.4,2.9c-3.1,1-6.3,2-9.4,3
			l-4.7,1.5c-1.6,0.5-3.1,1-4.7,1.6c-3.1,1-6.3,2.1-9.4,3.1c-3.1,1.1-6.3,2.2-9.4,3.2c-1.6,0.5-3.1,1.1-4.7,1.6
			c-1.6,0.5-3.1,1.1-4.7,1.7c-3.2,1.1-6.3,2.2-9.5,3.3c6.1-10.7,15.1-21.5,28.5-27.9c16.6-6.7,33-12.6,49.1-18.1
			c16.1-5.4,32-10.5,47.6-15.3c0.9,2.6,2.6,7.6,3.5,10.1c21.1-9.5,42.2-16.4,63-22.4c20.8-5.9,41.7-11,62.5-16.3
			c41.7-10.5,83.1-21.6,123.3-41.6c-3.4-0.4-2.3-3.1-2.2-4.9c0.2-0.1,0.4-0.1,0.6-0.2c-0.2,0.1-0.4,0.1-0.6,0.2
			c0.1-1.6-0.6-2.7-5.9-1c5.3-1.7,6-0.7,5.9,1c-41.2,14.5-81.4,27.4-121.9,39.3c-20.3,6-40.6,11.7-61.1,17.3
			c-20.6,5.6-41.7,11.2-63.6,17.3c16.9-5.1,33.4-10,49.7-14.9c8.1-2.4,16.1-4.9,24.2-7.3c8-2.5,16-4.9,24-7.4
			c31.9-10,63.6-20.3,95.4-30.8c63.5-21,127.2-42.8,193.3-63.9c5.6-1.8,16.9-5.4,22.5-7.2c25,0.5,48.4-4.1,70.9-11.3
			c-1.5,14.7,29.2,33.2-17.5,42.4c0.8,2.6,2.5,7.7,3.3,10.3c49.2-1.6,77.6,29,35.8,53.7C63,860.7-7.9,872.1-68.3,897
			c-44.3,17-88.5,34-135.2,43.2c-32.2,6-65.1,15.1-97.9,23.9c-32.7,8.7-64.5,17-95,23.2c-10.9,2.8-24.5,9.9-36.5,16.3
			c-3.1,1.5-5.9,3.1-8.7,4.5c-2.8,1.4-5.5,2.6-8,3.7c-2.5,1.1-4.8,1.9-6.9,2.3c-2.1,0.5-4.1,0.6-5.7,0.4
			c-8.6,0.3-11.8-4.5-13.9-10.6c32.3-17.1,66.8-31,102.4-42.4c22.1-6.3,44.6-11.9,67.5-17.2c22.9-5.4,46-10.4,69.2-15
			c-23,3.5-46,8.1-69,13.5c-22.9,5.4-45.6,11.6-67.8,18.7c-35.9,10.2-70.8,22.1-103.9,37.4c-1.5-5.4-3.2-11.1-7.8-14.7
			c0,0-0.6,0.4-1.7,0.9c-1,0.6-2.5,1.4-4,2.3c-3.1,1.9-6.9,4.1-9.4,5.6c-3.4,0-6.4-0.1-9.1-0.5c-2.7-0.4-5.2-1.1-7.3-2
			c-4.3-1.8-7.5-4.6-9.8-7.9c-4.5-6.7-5.1-16-3.2-25.2C-528.6,953.1-527.1,948.6-525,943.8z"/>
	</g>
	<g clip-path="url(#SVGID_00000042711470625865321340000011947209754581710015_)">
		<path fill="#FFE277" d="M934,1014.5c-3.9-0.6-7.7-1.1-11.5-1.7c-70.7-8.1-141.4-5.4-220-10.8c-55-5.4-117.9-2.7-172.8-2.7
			c130.3,5,267.3,3.1,392.6,21.8c-12.7,6.4-27.8,11.5-45.4,11.5c-42.4-2.5-84.2-4.3-125.7-5.5c0-2.7,0-8,0-10.7
			c-117.9,8.1-227.9-13.5-345.7,0c4.2,1.4,1.7,3.6,0.8,5.4c-0.3,0-0.6,0-0.8,0c0.3,0,0.5,0,0.8,0c-0.8,1.5-0.3,2.7,7,2.7
			c-7.3,0-7.8-1.2-7-2.7c115.9-2.6,224.4,0,340.2,5.2c-179.8-5.1-353.1,0.2-537.4,0.2c-7.8,0-23.6,0-31.4,0
			c-31.4-8.1-62.9-10.8-94.3-10.8c7.8-13.5-23.6-40.5,39.3-35.1c0-2.7,0-8.1,0-10.8C59.6,957,36,919.2,98.9,908.4
			c70.7-10.8,165,0,251.4-5.4c62.9-2.7,125.7-5.4,188.6,0c86.4,8.1,180.7,5.4,267.1,16.2c31.4,2.7,86.5-5.4,102.2,2.7
			c11.3,3.9,11.7,9.6,10,16c-51.7-1-103.2-1.2-154.1-2.4c-62.5-3-125-6.4-187.4-11.8c61.1,7.4,123.8,10.3,187.4,11.8
			c50.8,2.5,101.7,4.7,152.5,7.6c-1.9,5.5-3.6,11.3-0.5,16.6c0,0,15.7,0,23.6,0c31.4,13.5,23.6,32.4,7.9,45.9
			C943.5,1008.4,939,1011.5,934,1014.5z"/>
	</g>
	<g clip-path="url(#SVGID_00000042711470625865321340000011947209754581710015_)">
		<path fill="#FFE277" d="M1926.3,1017c-2.4-0.4-4.8-0.8-7.2-1.2c-11-1.3-21.9-2.1-32.9-2.4c-11-0.3-22-0.4-33.2-0.4
			c-5.6,0-11.2,0.1-16.9,0c-5.7,0-11.4-0.1-17.2-0.2c-5.8-0.1-11.6-0.2-17.5-0.5c-5.9-0.3-11.9-0.6-17.9-1.1
			c-33.9-4.4-72.3-1-106.1-1c40,2.4,81,2.4,121.7,3.5c40.7,1.1,81.1,3.3,120.2,10.3c-7.4,6.9-16.4,12.5-27.3,13.1
			c-6.6-0.3-13.1-0.5-19.6-0.7c-6.5-0.2-13-0.4-19.5-0.6c-13-0.2-25.8-0.5-38.7-0.6c-0.1-2.7-0.3-8-0.4-10.7
			c-36.1,5.3-71.4,2.9-106.4,0.5c-35.1-2.4-70-4.4-106.4,1.8c2.6,1.5,1,3.7,0.4,5.4c-0.2,0-0.3,0-0.5,0c0.2,0,0.3,0,0.5,0
			c-0.5,1.5-0.2,2.7,4.3,2.8c-4.5-0.1-4.8-1.2-4.3-2.8c35.8-0.8,70.3-0.8,104.9-0.1c34.6,0.6,69.2,1.7,105,3.1
			c-55.5-0.5-110,0.3-164.8,0.8c-27.4,0.3-54.9,0.3-82.7,0.1c-13.9-0.2-27.8-0.3-41.9-0.7c-14-0.4-28.1-0.8-42.3-1.5
			c-4.8-0.2-14.5-0.7-19.4-0.9c-9.5-4.5-19-7.8-28.6-10c-9.6-2.2-19.2-3.5-28.8-4.1c5.6-13.2-11.8-41.3,26.2-33.5
			c0.2-2.7,0.5-8.1,0.6-10.8c-37.5-15.8-48.8-54.4-10.5-62.9c10.7-2,22.3-2.7,34.3-2.7c12.1,0.1,24.7,0.8,37.6,1.7
			c6.5,0.5,13,0.9,19.6,1.4c6.6,0.4,13.2,0.8,19.8,1.1c13.2,0.5,26.5,0.5,39.4-0.5c37.7-1.8,75.3-4.2,112.9,1c6.5,1,13,1.8,19.6,2.5
			c6.6,0.6,13.3,1.1,20,1.6c13.4,0.9,27,1.3,40.5,1.9c13.6,0.5,27.1,1,40.6,2c6.7,0.4,13.4,1,20.1,1.7c6.7,0.7,13.3,1.6,19.8,2.6
			c4.8,0.5,10.4,0.2,16.2-0.3c2.9-0.3,6-0.6,9-0.9c3-0.4,6-0.7,9-1.1c11.8-1.3,22.4-1.9,27.3,1.8c7,3.4,7.6,9.2,7,15.6
			c-31.2,1-62.3,2.3-93,2.3c-37.8-1.6-75.6-3.9-113.2-8.9c36.8,7.1,74.8,8.9,113.2,8.9c30.7,1.3,61.5,1.9,92.4,3
			c-0.8,5.6-1.5,11.4,0.7,16.6c0,0,9.5-0.6,14.3-0.9c19.9,12.2,16.6,31.4,7.8,45.5C1931.7,1010.4,1929.1,1013.7,1926.3,1017z"/>
	</g>
	<g clip-path="url(#SVGID_00000042711470625865321340000011947209754581710015_)">
		<path fill="#FFE277" d="M-25.3,1292.5c4.6,0,9.1,0,13.6-0.1c41.6-1.3,82.7-3.9,124.9-5.8c42.2-1.9,85.4-3.2,130.8-1.6
			c63.6,3.8,135.7,1.3,198.7,2c-74.6-3.3-151.5-4.4-228.1-4.2c-76.6,0.1-152.8,1.1-227.1,1.4c3.5-2,7.2-4,11.1-5.9
			c3.9-1.9,8-3.7,12.3-5.2c8.6-3,18.1-5.4,28.4-6.5c50-2.5,99-4,147.4-4.8c0.1,2.7,0.3,8,0.5,10.7c17.1-1.8,34-2.8,50.8-3.5
			c8.4-0.3,16.8-0.5,25.2-0.6c8.4-0.2,16.7-0.1,25-0.1c33.2,0.2,66.1,1.7,98.9,3.2c65.5,3,130.7,6.3,197.9,0.5
			c-4.8-1.5-1.9-3.7-0.9-5.4c0.3,0,0.6,0,1,0c-0.3,0-0.6,0-1,0c0.9-1.5,0.4-2.7-8-2.8c8.4,0.1,8.9,1.3,8,2.8
			c-66.1,0.4-130.3-0.8-194.8-2.1c-64.5-1.3-129.4-2.9-197-2.8c52.4-0.9,104.1-1,155.3-0.8c51.3,0.2,102.2,0.6,153,1
			c50.8,0.4,101.6,0.8,152.6,0.8c51,0,102.2-0.5,154-1.7c8.8-0.2,26.4-0.8,35.2-1c35.5,6.8,70.9,7.7,105.9,5.1
			c-3.9,7.1,3.5,16.7,3,24.5c-0.3,3.9-2.5,7.4-9.2,9.9c-6.7,2.4-17.8,3.8-35.7,3.6c0.2,2.7,0.5,8.1,0.6,10.8c9,1.2,17.4,2.7,25,4.5
			c3.8,0.9,7.4,1.9,10.8,3c3.4,1,6.6,2.2,9.6,3.3c11.9,4.7,20.4,10.4,24.3,16.4c3.9,5.9,3.4,12.2-2.8,17.9
			c-3.1,2.9-7.5,5.7-13.5,8.2c-6,2.5-13.4,5-22.5,6.9c-40.9,8.2-89.1,10.3-139.3,10.7c-50.2,0.4-102.4-0.9-152.2,1.4
			c-72.4,2.1-144.3,3.3-215.6-2.9c-49-4.6-100.1-6.1-151.1-7c-50.9-0.9-101.6-1.1-150.3-3.3c-4.4,0-9.2,0.1-14.3,0.4
			c-5.1,0.3-10.4,0.8-15.9,1.4c-5.5,0.6-11.1,1.2-16.7,1.8c-5.6,0.7-11.2,1.4-16.6,2.1c-5.4,0.7-10.8,1.3-15.8,1.8
			c-5,0.6-9.8,1-14.2,1.3c-8.8,0.6-16,0.3-20.5-1.2c-13-2.3-14.2-7.9-13.1-14.5c14.4-1.7,28.9-3,43.4-4.4c7.2-0.7,14.5-1.2,21.7-1.8
			l10.8-0.9c3.6-0.3,7.2-0.5,10.8-0.8c7.2-0.5,14.5-1,21.7-1.5c7.2-0.4,14.4-0.8,21.7-1.1c3.6-0.2,7.2-0.4,10.8-0.5
			c3.6-0.1,7.2-0.3,10.8-0.4c7.2-0.2,14.4-0.5,21.6-0.7c70.7-0.2,141.5,2.4,212.4,8.2c-34.7-3.9-69.8-6.4-105.2-7.7
			c-35.4-1.3-71.2-1.4-107.2-0.5l-21.5,0.2l-10.8,0.1l-10.8,0.3l-21.5,0.5l-21.5,0.8l-10.8,0.4l-10.7,0.5l-21.5,1.1l-21.5,1.4
			c-3.6,0.2-7.2,0.4-10.7,0.7l-10.7,0.8c1.4-5.7,2.7-11.7-1.4-16.5c0,0-4.4,0.6-10,1.3c-2.8,0.4-5.8,0.7-8.7,1.1
			c-2.9,0.4-5.7,0.8-7.9,1.1c-18.6-4.1-26.6-11.2-27.8-19.2c-1.2-8,4.3-17,12.4-25C-35.5,1300.3-30.7,1296.4-25.3,1292.5z"/>
	</g>
	<g clip-path="url(#SVGID_00000042711470625865321340000011947209754581710015_)">
		<path fill="#FFE277" d="M-285.1,1108c2.5-0.1,4.9-0.1,7.3-0.1c10.9-0.3,20.7-0.1,29.9,0.3c9.2,0.4,17.7,0.9,25.7,1.4
			c3.9,0.2,7.9,0.5,11.8,0.7c3.9,0.3,7.9,0.5,12,0.8c8,0.6,16.2,1.5,24.7,2.8c23.5,5.4,50.5,2.7,74,2.8c-27.9-2.5-56.5-3.3-84.9-5.8
			c-7.1-0.6-14.2-1.4-21.2-2.3c-7.1-0.9-13.9-2-21.3-3.2c-7.5-1.2-15.4-2.5-24.1-3.6c-8.7-1.1-18-2-28.2-2.1
			c6.5-8,15.5-14.5,25.7-15.3c6.1,0.1,11.9,0.5,17.2,0.9c5.3,0.4,10.3,0.9,15,1.3c2.3,0.2,4.5,0.4,6.8,0.7c2.2,0.2,4.5,0.4,6.7,0.6
			c4.5,0.4,8.9,0.7,13.4,1c0,2.7,0,8,0,10.7c50.5-8.1,97.6,13.6,148,0.1c-1.8-1.4-0.7-3.6-0.4-5.4c0.1,0,0.2,0,0.4,0
			c-0.1,0-0.2,0-0.4,0c0.3-1.5,0.1-2.7-3-2.7c3.1,0,3.3,1.2,3,2.7c-49.6,2.6-96.1-0.1-145.6-5.3c77,5.1,151.2-0.1,230.1,0
			c3.4,0,10.1,0,13.5,0c13.5,8.1,26.9,10.8,40.4,10.8c-3.4,13.5,10.1,40.5-16.8,35.1c0,2.7,0,8.1,0,10.8c26.9,13.5,37,51.3,10,62.1
			c-30.3,10.8-70.6-0.1-107.7,5.3c-26.9,2.7-53.8,5.4-80.7-0.1c-37-8.1-77.4-5.5-114.4-16.3c-3.3-0.7-7.2-0.7-11-0.4
			c-3.8,0.3-7.6,0.9-10.9,1.4c-6.7,1-11.5,1.7-14.3-1.9c-1.9-1.7-3.1-3.8-4.1-6.4c-0.9-2.6-1.5-5.6-1.8-8.8
			c8.3-1.2,17.7-1.6,27.8-1.4c10.1,0.2,21.4,0.6,32.3,1.2c26.7,3,53.5,6.4,80.2,11.8c-26.1-7.4-53-10.3-80.2-11.8
			c-10.8-1.2-22-2.5-32.1-3.6c-10.1-1-19.6-1.7-28.5-1.4c-0.5-5.5-0.8-11.3-3-16.3c0,0-0.4,0.1-1,0.2c-0.6,0.1-1.5,0.3-2.5,0.5
			c-1,0.2-2,0.5-3,0.7c-1,0.3-1.9,0.6-2.7,0.8c-4-2.3-7.4-5.1-10.2-8.1c-2.8-3.1-5.1-6.6-6.6-10.3c-1.5-3.7-2.4-7.8-2.5-11.9
			c-0.1-4.1,0.5-8.4,1.7-12.3c0.7-1.7,1.5-3.5,2.4-5.3C-287.2,1111.8-286.2,1109.9-285.1,1108z"/>
	</g>
	<g clip-path="url(#SVGID_00000042711470625865321340000011947209754581710015_)">
		<path fill="#FFE277" d="M1160.4,1203.1c2.3,0.4,4.6,0.9,6.8,1.3c41.7,6,82.8,1.5,128.8,5.4c32.2,4.3,68.8,0.7,100.9,0.1
			c-38.1-1.8-77.1-1.5-115.8-2.6c-38.7-1.1-77.1-3.6-114.2-11.1c7.1-6.8,15.7-12.3,26-12.8c12.5,0.6,24.8,1.2,37.1,1.6
			c12.3,0.4,24.5,0.7,36.7,0.8c0.1,2.7,0.3,8,0.4,10.7c34.3-5.3,67.7-3,101.1-1c33.4,2,66.6,3.4,101-3.6c-2.5-1.4-1-3.6-0.5-5.4
			c0.2,0,0.3,0,0.5,0c-0.2,0-0.3,0-0.5,0c0.4-1.5,0.2-2.7-4.1-2.7c4.3,0,4.6,1.1,4.1,2.7c-67.8,3.2-131.2,2-199.2-0.7
			c52.7,0.6,104.3-0.7,156.3-2.2c52-1.4,104.3-2.9,158.3-2.5c4.6,0,13.8,0.1,18.4,0.2c18.3,8.3,36.6,11.3,55,11.6
			c-4.8,13.4,12.9,40.7-23.5,34.7c0,2.7-0.1,8.1-0.2,10.8c36.3,14.2,49,52.2,12.6,62.3c-20.4,5-44.1,4.7-69,3.8
			c-12.4-0.5-25.1-1-37.8-1.1c-12.7-0.1-25.4,0.2-37.8,1.6c-36.2,2.8-72.2,6-108.4,1.2c-49.9-7.1-104-2.8-154.2-11.5
			c-18.2-2-49.5,7.6-59,0c-6.7-3.5-7.3-9.3-6.6-15.7c29.9-0.6,59.6-1.6,89.1-1.6c36.2,1.7,72.4,3.9,108.5,8.5
			c-35.4-6.6-71.7-8.4-108.5-8.5c-29.4-1.4-58.9-2.3-88.4-3.7c0.8-5.6,1.5-11.4-0.5-16.6c0,0-9.1,0.5-13.6,0.7
			c-18.9-12.5-15.5-31.6-7-45.6C1155.1,1209.6,1157.6,1206.4,1160.4,1203.1z"/>
	</g>
	<g clip-path="url(#SVGID_00000042711470625865321340000011947209754581710015_)">
		<path fill="#FFE277" d="M1952.7,1589.5c-5.4-0.3-10.7-0.6-16.1-1c-49.2-1.9-98.1-2.1-148.2-2.6c-50.1-0.5-101.5-1.4-155.4-4.7
			c-75.4-6.2-161.5-5.1-236.5-5.6c88.9,3.2,180.4,5.8,271.3,9c91,3.1,181.4,6.8,268.8,12.2c-8.7,3.5-18.2,6.9-28.7,9.3
			c-10.4,2.4-21.8,4.1-34.1,4.4c-59-0.9-116.9-2.3-174.1-3.8c0-2.7,0-8,0-10.7c-40.6,1.9-80.4,1.6-119.8,0.4
			c-39.4-1.2-78.4-3.3-117.2-5.2c-38.9-1.8-77.7-3.4-116.8-3.5c-9.8-0.1-19.6,0-29.4,0.2c-9.8,0.2-19.7,0.4-29.5,0.9
			c-9.9,0.4-19.7,1-29.6,1.7c-9.9,0.7-19.8,1.6-29.8,2.6c5.7,1.3,2.4,3.6,1.2,5.4c-0.4,0-0.8,0-1.1,0c0.4,0,0.7,0,1.1,0
			c-1,1.5-0.4,2.7,9.6,2.6c-9.9,0.2-10.6-1-9.6-2.6c78.4-2.7,154.7-2.2,231.2-0.3c76.6,1.9,153.4,5.3,233.2,8.3
			c-62-1.5-123.1-3.1-183.9-4.2c-60.7-1.1-121.1-1.7-181.4-1.3c-60.3,0.4-120.6,1.7-181.1,4.4c-60.5,2.8-121.2,7.1-182.4,13.4
			c-2.6,0.3-5.9,0.5-9.4,1c-3.6,0.4-7.5,0.9-11.4,1.3c-7.8,0.9-15.6,1.8-20.8,2.4c-42.5-2.9-84.6,0.8-125.7,8.5
			c3.9-7.6-5.7-16.1-5.9-24c-0.1-3.9,2.3-7.7,9.9-11.2c3.8-1.7,9-3.2,15.9-4.7c3.4-0.7,7.3-1.4,11.6-2c2.2-0.3,4.5-0.6,6.9-0.9
			c1.2-0.1,2.4-0.3,3.7-0.4c1.3-0.1,2.6-0.2,3.9-0.4c-0.4-2.7-1.3-8-1.7-10.7c-2.7,0-5.4,0-8-0.1c-2.6,0-5.2-0.1-7.7-0.2
			c-5-0.2-9.9-0.5-14.5-0.9c-4.6-0.4-9-0.9-13.2-1.5c-4.2-0.5-8.1-1.2-11.7-1.9c-14.6-2.9-25.2-7.3-30.5-12.6
			c-2.6-2.7-3.9-5.6-3.7-8.6c0.2-3.1,1.9-6.3,5.2-9.7c3.4-3.3,8.4-6.8,15.3-10.2c6.9-3.4,15.5-7,26.2-10.1c24.1-7,50.6-12.6,78.6-17
			c7-1.1,14.1-2.1,21.3-3.1c1.8-0.3,3.6-0.5,5.4-0.8c1.8-0.2,3.6-0.4,5.4-0.7c3.6-0.4,7.3-0.9,10.9-1.3c7.3-0.8,14.7-1.6,22.2-2.5
			c7.5-0.7,15-1.4,22.5-2c3.8-0.3,7.6-0.7,11.4-1c1.9-0.2,3.8-0.3,5.7-0.5c1.9-0.1,3.8-0.3,5.7-0.4c7.6-0.5,15.3-1.1,23-1.6
			c3.8-0.3,7.7-0.6,11.5-0.8c3.8-0.2,7.7-0.5,11.5-0.7c7.7-0.5,15.4-1,23.1-1.5c7.7-0.5,15.4-0.9,23.1-1.4c7.7-0.5,15.4-1,23-1.5
			c7.6-0.5,15.3-1,22.9-1.5c7.6-0.6,15.1-1.2,22.6-1.7c43.7-3,87.4-5.2,130.9-5.8c43.5-0.7,87,0.1,130.2,3.2
			c59.4,4.6,121.3,7,183,9.5c61.7,2.5,123.1,5,181.8,10c5.3,0.3,11.2,0.4,17.3,0.4c6.2,0,12.7-0.2,19.3-0.4
			c6.7-0.2,13.5-0.5,20.3-0.8c6.8-0.3,13.6-0.7,20.3-1c6.6-0.3,13.1-0.6,19.3-0.8c6.1-0.2,11.9-0.4,17.3-0.3
			c10.6,0.1,19.3,0.9,24.7,2.6c15.4,3.2,16.3,8.9,14.2,15.4c-17.5,0.6-35.1,0.9-52.6,1.3c-8.8,0.1-17.5,0.2-26.3,0.4
			c-8.8,0.1-17.5,0.2-26.2,0.3c-8.7,0-17.5,0.1-26.2,0.1c-8.7,0-17.5-0.1-26.2-0.1c-4.4,0-8.7,0-13.1-0.1c-4.4-0.1-8.7-0.1-13.1-0.2
			c-8.7-0.1-17.4-0.3-26.1-0.4c-85.2-3.2-170.5-8.1-256.1-14.6c83.7,8.5,169.3,12.9,256.1,14.6l26,0.9l13,0.4l13,0.4l26,0.7l26,0.5
			l13,0.3l13,0.2l26,0.4c17.3,0.1,34.6,0.3,51.9,0.2c-2.3,5.6-4.5,11.5-0.1,16.6c0,0,5.4-0.2,12.1-0.5c3.4-0.1,7-0.3,10.6-0.5
			c3.5-0.2,6.9-0.4,9.5-0.5c43.6,11.1,34.3,30.6,13.2,45.2C1965.6,1582.6,1959.6,1586.1,1952.7,1589.5z"/>
	</g>
	<g clip-path="url(#SVGID_00000042711470625865321340000011947209754581710015_)">
		<path fill="#FFE277" d="M-142.1,1685.6c2.9,0.6,5.7,1.2,8.5,1.7c52.4,8.2,104.7,5.5,162.9,11c40.7,5.5,87.3,2.8,128,2.9
			c-96.5-5.1-198-3.4-290.7-22.2c9.4-6.4,20.6-11.4,33.6-11.4c31.4,2.6,62.4,4.4,93.1,5.6c0,2.7,0,8,0,10.7
			c87.3-8,168.7,13.7,256.1,0.3c-3.1-1.4-1.3-3.6-0.6-5.4c0.2,0,0.4,0,0.6,0c-0.2,0-0.4,0-0.6,0c0.6-1.5,0.2-2.7-5.2-2.7
			c5.4,0,5.8,1.2,5.2,2.7c-85.9,2.5-166.2-0.2-251.9-5.6c133.1,5.2,261.5,0.2,398,0.3c5.8,0,17.5,0,23.3,0
			c23.3,8.1,46.6,10.9,69.8,10.9c-5.8,13.5,17.4,40.5-29.1,35.1c0,2.7,0,8.1,0,10.8c46.5,13.6,64,51.4,17.4,62.1
			c-52.4,10.7-122.2-0.2-186.2,5.1c-46.6,2.6-93.1,5.3-139.7-0.2c-64-8.2-133.8-5.6-197.8-16.5c-23.3-2.7-64,5.3-75.7-2.8
			c-8.4-3.9-8.7-9.6-7.4-16c38.3,1,76.4,1.4,114.1,2.6c46.3,3.1,92.5,6.5,138.8,11.9c-45.2-7.5-91.7-10.4-138.8-11.9
			c-37.6-2.5-75.3-4.8-112.9-7.8c1.4-5.5,2.7-11.3,0.4-16.6c0,0-11.6,0-17.5,0c-23.3-13.5-17.4-32.4-5.8-45.9
			C-149.2,1691.8-145.8,1688.7-142.1,1685.6z"/>
	</g>
	<g clip-path="url(#SVGID_00000042711470625865321340000011947209754581710015_)">
		<path fill="#FFE277" d="M654.3,1568.4c-1.3-0.3-2.7-0.7-4-1c-24.1-3.9-46.2,2.6-72.3,1.2c-18.5-2.6-38.2,3.2-55.8,5.6
			c21.3-0.5,42.8-2.9,64.4-3.9c21.6-1,43.3-0.4,65,5.2c-2.9,7-6.9,12.9-12.6,13.9c-14.1-0.1-27.9,0.4-41.4,1.4
			c-0.4-2.7-1.3-7.9-1.7-10.6c-18.3,7.1-37.2,6.6-55.9,6.6c-18.8,0-37.3,0.5-55.5,9.7c1.5,1.2,1,3.5,1,5.3c-0.1,0-0.2,0-0.3,0.1
			c0.1,0,0.2,0,0.3-0.1c-0.1,1.6,0.3,2.7,2.6,2.4c-2.4,0.3-2.7-0.8-2.6-2.4c37.2-7.5,72.4-10,110.6-10.9
			c-29.4,2.2-57.9,6.5-86.5,11.1c-28.6,4.6-57.5,9.5-87.4,12.8c-2.5,0.3-7.7,0.8-10.2,1.1c-11.1-7-21.5-8.6-31.7-7.6
			c1.2-13.7-11.6-39.5,9.1-36.2c-0.3-2.7-0.8-8.1-1.1-10.7c-21.5-11.4-32.4-48.3-13.8-61c10.6-6.5,23.5-7.9,37.1-8.7
			c6.8-0.4,13.8-0.7,20.7-1.4c6.9-0.7,13.8-1.9,20.4-4.1c19.3-5.1,38.5-10.4,58.9-7.9c28.2,4.2,57.1-3,85.9,3.1
			c10.3,1,26-9.9,32.4-2.8c4.2,3.2,5.4,8.8,5.9,15.2c-16.4,1.9-32.6,4.4-48.8,5.9c-20.1,0.2-40.2,0-60.6-2.5
			c20.2,4.5,40.4,4.3,60.6,2.5c16.4-0.2,32.7-0.7,49.2-0.7c0.4,5.5,0.8,11.3,2.7,16.4c0,0,5-0.9,7.4-1.3
			c12.3,11.5,13.3,30.5,10.7,44.7C656.2,1561.7,655.3,1565,654.3,1568.4z"/>
	</g>
	<g clip-path="url(#SVGID_00000042711470625865321340000011947209754581710015_)">
		<path fill="#FFE277" d="M1446.7,1895c-3.1-0.5-6.1-1-9.2-1.5c-56.3-7.2-112.4-3.9-174.8-9c-43.7-5.2-93.5-2.4-137.2-2.6
			c103.5,5.3,212.1,2.7,311.9,19.9c-10,6.5-21.9,11.8-35.9,12c-33.7-2-67-3.5-100-4.4c0-2.7-0.1-8-0.1-10.7
			c-46.8,4.4-92.1,1.2-137.3-1.6c-45.3-2.8-90.5-5-137.3,1.4c3.3,1.5,1.3,3.7,0.6,5.4c-0.2,0-0.5,0-0.7,0c0.2,0,0.4,0,0.7,0
			c-0.6,1.5-0.3,2.7,5.6,2.8c-5.8,0-6.2-1.2-5.6-2.8c92.2-1.8,178.3,0.9,270.3,5.5c-71.5-2-141.6-1.9-212.2-1.6
			c-70.6,0.3-141.7,0.8-214.9-0.6c-6.2-0.1-18.7-0.3-25-0.5c-24.8-8.6-49.7-11.8-74.7-12.5c6.5-13.4-17.7-40.9,32-34.4
			c0.1-2.7,0.2-8.1,0.2-10.8c-49.5-14.7-67.1-52.9-17.2-62.5c56-9.5,130.2,2.7,198.5-1.9c49.6-2.1,99.2-4.5,148.8,1.1
			c68.2,8.3,142.6,5.3,210.9,15.4c24.9,2.5,68.2-6.2,80.7,1.7c9,3.7,9.4,9.5,8.1,15.9c-40.9-0.3-81.6-0.1-121.8-1
			c-49.4-2.6-98.8-5.8-148.1-11.2c48.2,7.5,97.8,10.1,148.1,11.2c40.2,2.2,80.4,3.9,120.6,6.2c-1.4,5.5-2.7,11.3-0.2,16.6
			c0,0,12.4-0.2,18.7-0.3c25.1,13.1,19.2,32.1,7,45.8C1454.2,1888.7,1450.7,1891.9,1446.7,1895z"/>
	</g>
	<g clip-path="url(#SVGID_00000042711470625865321340000011947209754581710015_)">
		<path fill="#FFE277" d="M99.3,1976.8c-3-0.1-6-0.1-9-0.2c-54.5,0.8-107.3,12.2-167.3,16.2c-42.3,1.2-89.2,11.3-130.6,17.6
			c99-10.1,201.8-28.4,299.1-25.6c-8.5,7.9-19.1,14.8-32.3,17c-32.3,2.8-64.1,6.1-95.6,10c-0.4-2.7-1.3-7.9-1.7-10.6
			c-43.8,11.1-87.2,14.6-130.6,18.5c-43.4,4-86.6,8.5-130.1,21.8c3.4,1,1.8,3.4,1.4,5.2c-0.2,0-0.4,0.1-0.6,0.1
			c0.2,0,0.4-0.1,0.6-0.1c-0.4,1.6,0.2,2.7,5.7,1.9c-5.5,0.8-6.1-0.3-5.7-1.9c87.1-15.6,169.2-25.7,257.3-34.5
			c-68.1,8.4-134.7,18.8-201.6,29.6c-66.9,10.8-134.3,22.1-203.9,32c-5.9,0.8-17.8,2.5-23.7,3.4c-24.9-4.7-49-4-72.7-0.7
			c4.1-14.2-23.3-37.6,24.8-38.9c-0.4-2.7-1.1-8-1.5-10.7c-49.3-6.8-72.1-41.8-26.3-59c51.7-18.1,124.1-17.4,188.2-32.3
			c46.8-9.6,93.6-19.4,141.6-21.3c66.1-1.9,136.4-15.7,202.9-15.6c24-1.1,63.9-15.9,77-9.9c9.1,2.4,10.4,8,10.1,14.6
			c-38.9,5.5-77.6,11.5-116,16.5c-47.4,4.5-94.8,8.6-142.5,10.6c47,0.2,94.5-4.4,142.5-10.6c38.5-3.7,77.1-7.7,115.7-11.2
			c-0.5,5.7-0.9,11.6,2.3,16.4c0,0,11.8-2,17.7-2.9c25.8,9.4,23,29,13.5,44.3C105.4,1969.5,102.6,1973.1,99.3,1976.8z"/>
	</g>
	<g clip-path="url(#SVGID_00000042711470625865321340000011947209754581710015_)">
		<path fill="#FFE277" d="M772,2128.5c-2.5-0.4-4.9-0.8-7.4-1.2c-45.1-5.2-89.6,0-139.4-3.2c-34.9-3.8-74.4,0.4-109.1,1.4
			c41.2,1.3,83.4,0.4,125.3,0.9c41.9,0.5,83.4,2.4,123.6,9.1c-7.6,6.9-16.8,12.6-28,13.2c-6.7-0.2-13.5-0.4-20.2-0.5
			c-6.7-0.2-13.4-0.3-20-0.4c-13.3-0.1-26.5-0.2-39.7-0.2c-0.1-2.7-0.4-8-0.5-10.7c-37,5.9-73.2,4-109.3,2.6
			c-36.1-1.5-72.1-2.5-109.2,4.9c2.7,1.4,1.1,3.6,0.6,5.4c-0.2,0-0.4,0-0.5,0c0.2,0,0.3,0,0.5,0c-0.5,1.5-0.1,2.7,4.5,2.6
			c-4.6,0.1-5-1.1-4.5-2.6c73.3-4.1,141.9-3.8,215.5-2.1c-57,0.3-112.8,2.4-169.1,4.5c-56.2,2.1-112.9,4.3-171.2,4.3
			c-5,0-14.9,0-19.9,0c-19.9-8.2-39.8-10.9-59.6-11.1c5.1-13.5-14.5-40.6,25.1-34.9c0-2.7,0-8.1,0.1-10.8
			c-39.5-13.8-53.6-51.8-14.3-62.2c11-2.6,23-3.9,35.5-4.5c12.5-0.5,25.7-0.4,39.1-0.1c13.5,0.3,27.2,0.7,41,0.7
			c13.8-0.1,27.5-0.5,40.9-2.1c39.1-3.2,78.1-6.9,117.4-2.7c54.1,6.4,112.7,1.3,167,9.1c19.8,1.7,53.5-8.5,63.8-1
			c7.3,3.4,7.9,9.1,7.3,15.6c-32.3,1.1-64.5,2.7-96.4,3.1c-39.2-1.1-78.3-2.7-117.5-6.8c38.4,6.1,77.7,7.3,117.5,6.8
			c31.9,0.9,63.8,1.3,95.7,2.1c-0.8,5.6-1.6,11.4,0.7,16.6c0,0,9.8-0.6,14.8-1c20.6,12.2,17,31.4,8,45.5
			C777.6,2122,774.9,2125.2,772,2128.5z"/>
	</g>
	<g clip-path="url(#SVGID_00000042711470625865321340000011947209754581710015_)">
		<path fill="#FFE277" d="M1706.1,2076.4c-1.2-0.5-2.3-1-3.5-1.5c-21.3-6.9-42-3.2-65.3-7.9c-16.3-4.9-34.7-1.7-50.9-1.5
			c19.2,2.2,38.9,2.5,58.4,4.3c19.6,1.8,39.1,5.1,58.1,13.4c-3.4,6.6-7.6,11.9-12.8,12.2c-12.7-1.8-25.2-3.1-37.6-3.8
			c-0.1-2.7-0.3-8-0.4-10.7c-17.3,4.7-34.3,1.8-51.2-0.5c-16.9-2.4-33.7-4.2-51.1,2.5c1.2,1.4,0.5,3.6,0.3,5.4c-0.1,0-0.2,0-0.2,0
			c0.1,0,0.2,0,0.2,0c-0.2,1.5-0.1,2.7,2.1,2.7c-2.2,0-2.3-1.2-2.1-2.7c34.4-2.7,66.4-0.7,101,3.3c-26.8-1.5-52.9-0.9-79.3,0
			c-26.4,0.9-52.9,2.1-80.3,1.5c-2.3,0-7-0.1-9.3-0.2c-9.1-8.3-18.3-11.3-27.6-11.6c2.8-13.4-5.5-40.7,12.7-34.7
			c0.1-2.7,0.2-8.1,0.3-10.8c-17.9-14.1-23-52.1-4.8-62.3c10.2-5.1,21.9-4.8,34.1-3.8c6.1,0.5,12.4,1,18.6,1.2
			c6.3,0.1,12.5-0.1,18.7-1.4c17.9-2.6,35.6-5.4,53.5-0.3c12.3,3.9,25.2,4.9,38.1,6.2c6.4,0.7,12.9,1.4,19.3,2.5
			c6.4,1.1,12.8,2.8,19,5.2c9.1,2.3,24.3-6.6,29.3,1.3c3.4,3.7,3.9,9.4,3.8,15.8c-14.9-0.1-29.7,0.3-44.3-0.3
			c-18-2.3-36-5.1-54-10.2c17.6,7.1,35.7,9.4,54,10.2c14.7,1.9,29.4,3.4,44.1,5.5c-0.2,5.5-0.4,11.3,0.8,16.6c0,0,4.5-0.3,6.8-0.4
			c9.9,12.9,8.8,31.9,5,45.7C1708.5,2070,1707.4,2073.2,1706.1,2076.4z"/>
	</g>
</g>
</svg>
